# xmcd
# 
# Track frame offsets:
#     182
#     20670
#     34690
#     50895
#     59855
#     73070
#     86867
#     101460
#     115490
#     124440
#     142495
#     149885
#     167037
#     181390
# 
# Disc length: 2460
# 
# Revision: 3
# Processed by: cddbd v1.5.2PL0 Copyright (c) Steve Scherf et al.
# Submitted via: fre:ac v1.0.27
# 
DISCID=f0099a0e
DTITLE=Muzsikás - The Lost Jewish Music of Transylvania
DYEAR=1993
DGENRE=Yiddish
TTITLE0=Chaszid lakodalmi táncok (Khosid Wedding Dances)
TTITLE1=Szól a kakas már (The Rooster is Crowing)
TTITLE2=Dance From Máramaros
TTITLE3=Keserves (Lamenting Song)
TTITLE4=Ane Maimin (Ane Maamin)
TTITLE5=Most jövök gyuláról (I Have Just Come From Gyula)
TTITLE6=Szombateste búcsúztató (Farewell to Shabbat)
TTITLE7=Szászrégeni zsidó tánc (Jewish Dance From Szászrégen)
TTITLE8=Hat a Jid a Wejbele
TTITLE9=Széki zsidó csárdások (Jewish Csárdás Series from Szék)
TTITLE10=Chaszid tánc (Khosid Dance)
TTITLE11=Menyasszony-búcsúztató (The Greeting of the Bride)
TTITLE12=Chanukka gyeryagyújtás (Haneros Halelu)
TTITLE13=Farewell to the Guests
EXTD=YEAR: 1993
EXTT0=
EXTT1=
EXTT2=
EXTT3=
EXTT4=
EXTT5=
EXTT6=
EXTT7=
EXTT8=
EXTT9=
EXTT10=
EXTT11=
EXTT12=
EXTT13=
PLAYORDER=
